<svg id="Capa_1" data-name="Capa 1" xmlns="http://www.w3.org/2000/svg" viewBox="0 0 200 200"><title>cinco</title><rect width="200" height="200" style="fill:#fff"/><path d="M135.18,117.13a38.82,38.82,0,0,1-2.79,14.58,33.82,33.82,0,0,1-7.61,11.72,36,36,0,0,1-12.57,7.87,47.68,47.68,0,0,1-16.88,2.75,78.25,78.25,0,0,1-17.21-1.87,71.09,71.09,0,0,1-14-4.51V132.22h1a63.33,63.33,0,0,0,14.06,6.48A49.82,49.82,0,0,0,95,141.38a34.66,34.66,0,0,0,10.07-1.47,21,21,0,0,0,8.68-5.13,20.32,20.32,0,0,0,4.87-7.54,28.86,28.86,0,0,0,1.65-10.18,21.19,21.19,0,0,0-1.94-9.52,16.16,16.16,0,0,0-5.39-6.23,23.75,23.75,0,0,0-9.26-3.92,60.59,60.59,0,0,0-12.2-1.13,84.61,84.61,0,0,0-12.41.88q-6,.87-10.29,1.76V42.72h65.62V55.54H83v29q3.15-.29,6.45-.44c2.2-.1,4.1-.15,5.71-.15a71.25,71.25,0,0,1,15.53,1.51,35.11,35.11,0,0,1,12.23,5.31,27.38,27.38,0,0,1,9.08,10.4Q135.18,107.53,135.18,117.13Z" style="fill:#fdc559"/></svg>