<svg id="Capa_1" data-name="Capa 1" xmlns="http://www.w3.org/2000/svg" viewBox="0 0 200 200"><title>nueve</title><rect width="200" height="200" style="fill:#fff"/><path d="M135.91,90.69a96.23,96.23,0,0,1-3.26,25.93,54.94,54.94,0,0,1-9.85,19.85,44.53,44.53,0,0,1-16.7,12.89q-10,4.54-23.59,4.54a60.16,60.16,0,0,1-7.17-.4,31.05,31.05,0,0,1-6-1.28v-14h.73a29.64,29.64,0,0,0,6,2.08,35,35,0,0,0,8.64,1q16.19,0,25.38-9.7t10.66-26.77a55.48,55.48,0,0,1-12.82,5.86,46.6,46.6,0,0,1-13.11,1.76,52,52,0,0,1-12.2-1.32,33,33,0,0,1-11-5.13A28.46,28.46,0,0,1,62,94.65a38.26,38.26,0,0,1-3.26-16.48q0-16.69,11-27.17T96.5,40.52A42.38,42.38,0,0,1,111.15,43a32.74,32.74,0,0,1,11.79,7.36A40.05,40.05,0,0,1,132.54,66Q135.9,75.54,135.91,90.69Zm-14.8-3.15q0-11.34-2.34-18.23a25.42,25.42,0,0,0-6.45-10.7,21.08,21.08,0,0,0-7.39-4.72,25.14,25.14,0,0,0-8.57-1.43q-10.55,0-16.67,6.59T73.58,77.58a27.81,27.81,0,0,0,2,11.35A19.79,19.79,0,0,0,89.47,99.66a46.47,46.47,0,0,0,31.35-5.23c.05-1,.11-2,.18-3S121.11,89.11,121.11,87.54Z" style="fill:#fdc559"/></svg>