<svg id="Capa_1" data-name="Capa 1" xmlns="http://www.w3.org/2000/svg" viewBox="0 0 200 200"><title>seis</title><rect width="200" height="200" style="fill:#fff"/><path d="M137.67,116.4q0,16.63-10.95,27.14T99.87,154.05a41.2,41.2,0,0,1-14.65-2.49,33.63,33.63,0,0,1-11.64-7.4,39.68,39.68,0,0,1-9.71-16.11q-3.4-10-3.4-24.17a96.53,96.53,0,0,1,3.11-25.71,56.5,56.5,0,0,1,9.93-19.92A43.54,43.54,0,0,1,90.13,45.32q10.19-4.65,23.73-4.65a61,61,0,0,1,7.25.36,34.33,34.33,0,0,1,5.94,1.32v14h-.74a27.15,27.15,0,0,0-6.19-2.09,36.63,36.63,0,0,0-8.45-1q-15.75,0-25.13,9.85T75.63,89.74a58.29,58.29,0,0,1,12.12-5.68,44.8,44.8,0,0,1,13.81-1.94,52.85,52.85,0,0,1,12.27,1.28,32.61,32.61,0,0,1,10.87,5.17,28.63,28.63,0,0,1,9.71,11.28Q137.67,106.66,137.67,116.4ZM122.8,117a27.4,27.4,0,0,0-2-11.28,19.37,19.37,0,0,0-6.62-7.77,18.75,18.75,0,0,0-7.48-3.07,48.44,48.44,0,0,0-8.56-.74A43.56,43.56,0,0,0,86.54,95.6a51.68,51.68,0,0,0-11,4.54c-.1,1.07-.18,2.11-.22,3.11s-.08,2.26-.08,3.78q0,11.56,2.38,18.27a26.09,26.09,0,0,0,6.56,10.58,21.69,21.69,0,0,0,7.29,4.73,23.63,23.63,0,0,0,8.53,1.5q10.62,0,16.7-6.48T122.8,117Z" style="fill:#fdc559"/></svg>