<svg id="Capa_1" data-name="Capa 1" xmlns="http://www.w3.org/2000/svg" viewBox="0 0 200 200"><title>tres</title><rect width="200" height="200" style="fill:#fff"/><path d="M126.46,99.26a25,25,0,0,1,5.79,7.91q2.26,4.77,2.27,12.31a34,34,0,0,1-2.71,13.69A32.58,32.58,0,0,1,124.19,144a34.42,34.42,0,0,1-12.93,7.58A51.58,51.58,0,0,1,95,154.05a74.65,74.65,0,0,1-17.88-2.16,84,84,0,0,1-14.42-4.73V131.85h1.09a59.81,59.81,0,0,0,14.65,6.82,53.25,53.25,0,0,0,16.26,2.71,34.89,34.89,0,0,0,9.82-1.54,20.89,20.89,0,0,0,8.42-4.54,21.37,21.37,0,0,0,5-7.11,25.2,25.2,0,0,0,1.65-9.81,22.29,22.29,0,0,0-1.87-9.71,15,15,0,0,0-5.17-6,20.18,20.18,0,0,0-8-3.11,57.28,57.28,0,0,0-10.11-.84H87.86V86.52H93q11.13,0,17.76-4.65t6.63-13.59A13.35,13.35,0,0,0,111,56.49a21.15,21.15,0,0,0-6.74-2.64,40.71,40.71,0,0,0-8.13-.73,49,49,0,0,0-14.8,2.49,60.42,60.42,0,0,0-14.79,7h-.73V47.33a70.7,70.7,0,0,1,13.87-4.72A69.54,69.54,0,0,1,96.5,40.45a60.84,60.84,0,0,1,14.07,1.46,34.63,34.63,0,0,1,11,4.69,22.72,22.72,0,0,1,10.7,20.14,22.35,22.35,0,0,1-6.41,15.86,28.09,28.09,0,0,1-15.13,8.53v1a38.3,38.3,0,0,1,8.06,2.45A27.21,27.21,0,0,1,126.46,99.26Z" style="fill:#fdc559"/></svg>